<?xml version="1.0" standalone="no"?>
<!DOCTYPE svg PUBLIC "-//W3C//DTD SVG 20010904//EN"
 "http://www.w3.org/TR/2001/REC-SVG-20010904/DTD/svg10.dtd">
<svg version="1.0" xmlns="http://www.w3.org/2000/svg"
 width="1488.000000pt" height="1488.000000pt" viewBox="0 0 1488.000000 1488.000000"
 preserveAspectRatio="xMidYMid meet">
<metadata>
Created by potrace 1.14, written by Peter Selinger 2001-2017
</metadata>
<g transform="translate(0.000000,1488.000000) scale(0.100000,-0.100000)"
fill="#000000" stroke="none">
<path d="M4979 14876 c-2 -2 -50 -7 -106 -10 -55 -4 -112 -9 -125 -11 -12 -2
-48 -6 -78 -9 -30 -4 -71 -9 -90 -12 -113 -17 -175 -28 -260 -44 -52 -11 -106
-21 -120 -24 -132 -23 -499 -136 -714 -220 l-140 -54 -50 20 c-65 26 -201 64
-257 72 -24 3 -69 10 -99 15 -57 9 -320 7 -378 -3 -18 -3 -52 -8 -75 -11 -23
-3 -50 -8 -59 -11 -9 -3 -26 -7 -37 -9 -12 -3 -29 -7 -40 -9 -37 -9 -167 -47
-186 -56 -11 -5 -31 -12 -45 -16 -45 -13 -260 -114 -350 -165 -105 -60 -306
-198 -415 -286 -112 -90 -376 -346 -455 -442 -25 -29 -55 -65 -68 -80 -47 -53
-191 -249 -259 -351 -222 -334 -393 -708 -490 -1070 -28 -106 -27 -103 -48
-215 -8 -44 -18 -93 -21 -110 -4 -16 -8 -167 -10 -335 -2 -301 -2 -307 26
-435 15 -71 37 -159 48 -195 73 -239 221 -495 381 -663 l46 -48 1 -1592 c1
-876 4 -1630 8 -1677 7 -93 25 -280 31 -320 2 -14 6 -47 10 -73 4 -27 8 -57
10 -67 2 -9 6 -33 9 -51 48 -298 161 -698 277 -977 22 -53 45 -110 52 -127 38
-93 198 -401 272 -525 78 -129 194 -302 287 -427 17 -24 30 -44 27 -46 -283
-180 -490 -372 -675 -627 -148 -205 -294 -521 -349 -756 -2 -11 -9 -38 -15
-62 -5 -23 -13 -59 -16 -80 -3 -20 -10 -66 -15 -102 -14 -91 -21 -180 -22
-285 0 -90 12 -315 18 -325 1 -3 6 -27 9 -55 18 -135 84 -375 142 -515 72
-173 207 -402 329 -554 162 -204 402 -411 623 -538 69 -40 272 -138 285 -138
7 0 17 -4 23 -9 27 -25 314 -107 449 -127 17 -3 39 -7 51 -9 11 -2 52 -8 90
-12 38 -5 2398 -8 5244 -8 4906 0 5181 1 5284 18 429 69 830 250 1136 512 61
52 244 238 285 290 22 28 42 52 45 55 6 6 29 39 87 125 44 64 144 233 148 250
1 6 18 44 37 85 32 69 72 179 111 305 18 56 62 272 72 350 10 80 14 393 5 475
-17 153 -21 181 -44 287 -75 336 -219 639 -435 918 -74 95 -279 298 -376 373
-44 34 -84 65 -90 69 -5 5 -40 28 -77 51 l-67 44 58 76 c241 319 441 680 606
1093 25 62 45 117 45 122 0 5 6 23 14 40 21 46 101 310 121 397 2 8 10 45 19
81 22 97 24 108 56 287 16 89 32 195 36 235 3 39 8 74 9 77 16 27 20 484 20
2010 0 1557 -3 1866 -20 2007 -2 15 -6 55 -10 88 -3 33 -8 71 -10 85 -3 14 -7
41 -10 60 -130 829 -457 1577 -978 2233 -44 56 -83 104 -86 107 -3 3 -40 43
-81 90 -41 47 -137 147 -214 223 -577 572 -1289 979 -2095 1197 -80 22 -157
41 -171 44 -14 2 -70 13 -125 24 -55 11 -120 24 -145 28 -25 3 -54 8 -65 10
-11 3 -40 7 -65 10 -25 3 -56 7 -70 9 -14 2 -60 7 -103 10 -43 4 -88 9 -100
13 -23 7 -5431 15 -5438 8z m-2133 -625 c21 -1 6 -14 -77 -64 -173 -105 -451
-303 -564 -402 -16 -14 -63 -54 -102 -88 -87 -75 -368 -358 -438 -442 -28 -33
-60 -71 -73 -85 -42 -46 -219 -284 -289 -390 -220 -329 -410 -710 -534 -1070
-28 -79 -85 -263 -95 -302 -2 -10 -6 -26 -8 -35 -42 -161 -82 -344 -91 -413
-4 -27 -18 -115 -21 -135 -3 -11 -7 -45 -10 -75 -11 -117 -14 -119 -52 -38
-55 115 -94 241 -128 408 -24 121 -24 443 1 585 12 69 17 101 21 125 13 70 60
247 91 340 163 488 462 967 838 1345 139 140 187 183 345 308 145 115 409 264
583 328 122 45 292 87 387 94 47 4 86 8 87 9 1 1 73 0 129 -3z"/>
</g>
</svg>
